# xmcd
#
# Track frame offsets: 
#        150
#        10121
#        20197
#        31074
#        42813
#        51192
#        61488
#        73326
#        82673
#        96503
#        107256
#        116875
#        127617
#        138803
#        147212
#        156710
#        168197
#        178584
#        189250
#        200469
#        209978
#        221995
#
# Disc length: 3116 seconds
#
# Revision: 1
# Processed by: cddbd v1.5.2PL0 Copyright (c) Steve Scherf et al.
# Submitted via: ExactAudioCopy v0.95b2
#
DISCID=3f0c2a16
DTITLE=Various Artist - The Bestg of Chief Records Volume1
DYEAR=1900
DGENRE=Blues
TTITLE0=The Serenaders/A Sinner in Love
TTITLE1=Junior Wells/Messin' with the Kid
TTITLE2=G.Davy Crockett/Look Out Mabel
TTITLE3=Elmore James/Knocking At Your Door
TTITLE4=The Elites/Dapper Dan
TTITLE5=Junior Wells/I Need Me a Car
TTITLE6=Lillian Offitt/Will My Man Be Home Tonight
TTITLE7=The Elites/Come On Dance
TTITLE8=Elmore James/It Hurts Me Too
TTITLE9=Lillian Offitt/The Man Won't Work
TTITLE10=Junior Wells/Lovey Dovey Lovely One
TTITLE11=The Serenaders/Pajama Song
TTITLE12=Earl Hooker/Universal Rock
TTITLE13=The Elites/DarlingWhat Abgout You
TTITLE14=Terri Anders/Come Back My Love
TTITLE15=Junior Wells/Galloping Horses ande a Lazy Mule
TTITLE16=Elmore James/Take Me Where You Go
TTITLE17=Terri Anders/All In My Mind
TTITLE18=Magic Sam/Do The Camel Walk
TTITLE19=Earl Hooker/Rockin' Wild
TTITLE20=Lillian Offitt/My Man Is a Lover
TTITLE21=Elmore James/Calling All Blues
EXTD=
EXTT0=
EXTT1=
EXTT2=
EXTT3=
EXTT4=
EXTT5=
EXTT6=
EXTT7=
EXTT8=
EXTT9=
EXTT10=
EXTT11=
EXTT12=
EXTT13=
EXTT14=
EXTT15=
EXTT16=
EXTT17=
EXTT18=
EXTT19=
EXTT20=
EXTT21=
PLAYORDER=
